<svg version="1.2" xmlns="http://www.w3.org/2000/svg" xmlns:xlink="http://www.w3.org/1999/xlink" overflow="visible" preserveAspectRatio="none" viewBox="0 0 280 290" height="288" width="278"><g transform="translate(1, 1)"><path fill="url(#paint0_linear_1568719027246)" d="M278 145.011C278 213.019 175.976 287.828 112.913 287.828C49.8502 287.828 -2.648 225.261 0.10347 164.053C3.40198 90.6769 67.514 26.6768 134.925 26.6768C222.971 26.6768 278 85.1638 278 145.011Z" vector-effect="non-scaling-stroke"/><path style="mix-blend-mode:multiply" fill="url(#paint1_linear_1568719027246)" d="M265.364 162.528C265.364 221.03 221.635 282.212 162.553 282.212C90.307 282.212 0 180.412 0 108.877C0 50.3751 50.6748 9.82831 109.758 9.82831C168.841 9.82831 265.364 74.4851 265.364 162.528Z" vector-effect="non-scaling-stroke"/><path style="mix-blend-mode:multiply" fill="url(#paint2_linear_1568719027246)" d="M248.224 130.82C252.258 194.895 214.602 274.989 121.807 272.319C72.0428 272.319 18.2525 234.942 18.2525 169.532C18.2525 69.4146 76.0814 0 140.635 0C194.429 0 242.592 41.3818 248.224 130.82Z" vector-effect="non-scaling-stroke"/><ellipse fill="white" ry="88" rx="88.5" cy="136" cx="126.5" vector-effect="non-scaling-stroke"/><defs><linearGradient gradientUnits="userSpaceOnUse" y2="235.853" x2="26.8944" y1="99.7992" x1="211.28" id="paint0_linear_1568719027246" vector-effect="non-scaling-stroke"><stop stop-color="#009FE3" vector-effect="non-scaling-stroke"/><stop stop-color="#006CB5" offset="1" vector-effect="non-scaling-stroke"/></linearGradient><linearGradient gradientUnits="userSpaceOnUse" y2="282.212" x2="132.682" y1="9.82831" x1="132.682" id="paint1_linear_1568719027246" vector-effect="non-scaling-stroke"><stop stop-color="#971B81" vector-effect="non-scaling-stroke"/><stop stop-color="#971B81" offset="0.0001" vector-effect="non-scaling-stroke"/><stop stop-color="#E6007E" offset="1" vector-effect="non-scaling-stroke"/></linearGradient><linearGradient gradientUnits="userSpaceOnUse" y2="272.384" x2="133.384" y1="0" x1="133.384" id="paint2_linear_1568719027246" vector-effect="non-scaling-stroke"><stop stop-color="#FDC543" vector-effect="non-scaling-stroke"/><stop stop-color="#F39202" offset="1" vector-effect="non-scaling-stroke"/></linearGradient></defs></g></svg>